# Blender v2.81 (sub 16) OBJ File: 'aero-UAV-P0 for gazebo.blend'
# www.blender.org
mtllib aileron-left.mtl
o aileron_left_Untitled.000
v -0.487611 0.465559 -0.019863
v -0.487570 0.465546 -0.018894
v -0.486341 0.465145 -0.017790
v -0.482788 0.463985 -0.016094
v -0.472442 0.460607 -0.012913
v -0.444313 0.451422 -0.006163
v -0.453428 0.543110 -0.009513
v -0.310291 0.407663 0.020581
v -0.310291 0.460048 0.020003
v -0.353110 0.508243 0.011506
v -0.310291 0.681046 0.018367
v -0.344197 0.620950 0.012235
v -0.339709 0.794112 0.011890
v -0.310291 1.053731 0.016519
v -0.310291 1.400344 0.015253
v -0.340581 1.245370 0.009443
v -0.333500 1.563056 0.009969
v -0.310291 1.788148 0.014617
v -0.347907 1.788148 0.006492
v -0.310291 1.788149 -0.031152
v -0.310291 1.334831 -0.030822
v -0.310291 0.524077 -0.031079
v -0.310291 0.407663 -0.031652
v -0.310291 0.866821 -0.030593
v -0.361930 1.082855 -0.029342
v -0.346824 1.462372 -0.030122
v -0.358505 1.788148 -0.030237
v -0.460954 1.788148 -0.028595
v -0.477173 1.788148 -0.027895
v -0.481194 1.788148 -0.027375
v -0.482892 1.788149 -0.026864
v -0.475980 1.788148 -0.023067
v -0.459496 1.788148 -0.018844
v -0.393092 1.788148 -0.003550
v -0.480477 1.788148 -0.024536
v -0.482552 1.788149 -0.025467
v -0.483014 1.609458 -0.026486
v -0.390839 1.518506 -0.029352
v -0.458485 1.582521 -0.028244
v -0.472960 1.566370 -0.027723
v -0.478561 1.526925 -0.027169
v -0.481425 1.526578 -0.026753
v -0.483358 1.788148 -0.026250
v -0.460235 1.549733 -0.018470
v -0.470860 1.623882 -0.021317
v -0.477178 1.617486 -0.023063
v -0.480540 1.591029 -0.024097
v -0.407186 1.275314 -0.028565
v -0.462460 1.424716 -0.027703
v -0.483162 1.331474 -0.025455
v -0.482627 1.591801 -0.025031
v -0.421194 1.613984 -0.009614
v -0.372491 1.621410 0.001342
v -0.394835 1.467274 -0.003196
v -0.469926 1.344813 -0.027141
v -0.475253 1.227530 -0.026322
v -0.478988 1.227461 -0.025942
v -0.481639 1.227496 -0.025483
v -0.483511 1.452920 -0.025347
v -0.472553 1.391843 -0.020896
v -0.444007 1.399731 -0.014055
v -0.382895 1.328417 0.000017
v -0.460802 1.117660 -0.016342
v -0.464570 1.301807 -0.018375
v -0.477200 1.322403 -0.021870
v -0.480583 1.295486 -0.022848
v -0.482694 1.321086 -0.023928
v -0.458835 0.942974 -0.026018
v -0.447321 1.045090 -0.026848
v -0.409619 1.034018 -0.027961
v -0.466904 0.851452 -0.025193
v -0.483547 0.924389 -0.023170
v -0.483641 1.069897 -0.023333
v -0.476128 1.007418 -0.019565
v -0.470404 0.853799 -0.016779
v -0.480725 0.966845 -0.020816
v -0.482797 1.021372 -0.022181
v -0.480168 0.746885 -0.023353
v -0.474413 0.838301 -0.024565
v -0.414418 0.855760 -0.027452
v -0.354082 0.811770 -0.029363
v -0.436369 0.761292 -0.026444
v -0.483388 0.671961 -0.022228
v -0.484720 0.686376 -0.021580
v -0.484097 0.844818 -0.021891
v -0.456841 0.795436 -0.012983
v -0.465609 0.588736 -0.012928
v -0.467168 0.732305 -0.014884
v -0.477947 0.730149 -0.017829
v -0.481430 0.729110 -0.019046
v -0.483380 0.786677 -0.020562
v -0.477699 0.629719 -0.023250
v -0.473502 0.565553 -0.023534
v -0.465604 0.560671 -0.024269
v -0.454927 0.682095 -0.025323
v -0.357185 0.660589 -0.029320
v -0.357198 0.555855 -0.029469
v -0.416350 0.634775 -0.027131
v -0.450198 0.544675 -0.025314
v -0.482807 0.463991 -0.021869
v -0.486556 0.525185 -0.020352
v -0.485541 0.612462 -0.020172
v -0.484711 0.590003 -0.018968
v -0.481679 0.567297 -0.017207
v -0.473772 0.614698 -0.015376
v -0.438575 0.738642 -0.008353
v -0.443243 1.049011 -0.011851
v -0.392610 1.133670 -0.001157
v -0.410999 0.932917 -0.003887
v -0.363767 0.915954 0.006230
v -0.395506 0.740992 0.000883
v -0.395873 0.623787 0.001855
v -0.411753 0.512012 -0.000201
v -0.379849 0.430374 0.007205
v -0.486294 0.465130 -0.020795
v -0.472354 0.460578 -0.023459
v -0.448414 0.452761 -0.025432
v -0.417576 0.529869 -0.027087
v -0.383560 0.431586 -0.028822
v -0.415286 0.441945 -0.027327
vn -0.9989 0.0180 0.0426
vn -0.9990 0.0225 0.0378
vn -0.9989 0.0232 0.0419
vn -0.3104 -0.9506 -0.0000
vn -0.2113 0.0016 0.9774
vn -0.2111 0.0016 0.9775
vn -0.0334 0.0014 -0.9994
vn -0.0377 0.0028 -0.9993
vn -0.0285 0.0003 -0.9996
vn -0.0274 -0.0005 -0.9996
vn -0.0225 -0.0013 -0.9997
vn -0.2244 0.0023 0.9745
vn -0.2481 0.0039 0.9687
vn -0.2487 0.0021 0.9686
vn -0.2472 0.0016 0.9690
vn -0.3091 0.0130 0.9509
vn -0.3131 0.0024 0.9497
vn -0.3097 -0.0086 0.9508
vn -0.7972 -0.0007 -0.6037
vn -0.0431 -0.0010 -0.9991
vn -0.0424 -0.0033 -0.9991
vn -0.0436 -0.0018 -0.9990
vn -0.0160 -0.0014 -0.9999
vn -0.0336 -0.0021 -0.9994
vn -0.0331 -0.0013 -0.9994
vn -0.2691 0.0172 -0.9630
vn -0.2690 -0.0021 -0.9631
vn -0.2506 -0.0021 -0.9681
vn -0.2246 0.0025 0.9744
vn -0.2247 0.0022 0.9744
vn -0.2170 0.0018 0.9762
vn -0.2704 0.0024 0.9628
vn -0.2668 0.0025 0.9637
vn -0.2698 0.0050 0.9629
vn -0.2360 0.0032 0.9717
vn -0.2360 0.0048 0.9717
vn -0.2366 0.0039 0.9716
vn -0.2609 0.0073 0.9653
vn -0.2622 0.0040 0.9650
vn -0.2610 0.0006 0.9653
vn -0.6438 0.0024 0.7652
vn -0.6844 0.0023 0.7291
vn -0.0331 -0.0026 -0.9994
vn -0.0327 -0.0031 -0.9995
vn -0.8033 -0.0018 -0.5956
vn -0.6833 0.0027 0.7301
vn -0.7206 0.0030 0.6934
vn -0.7556 0.0029 0.6550
vn -0.3068 0.0146 0.9517
vn -0.3107 0.0043 0.9505
vn -0.3074 0.0146 0.9515
vn -0.2276 0.0040 0.9738
vn -0.2253 0.0043 0.9743
vn -0.2256 0.0043 0.9742
vn -0.2823 0.0170 -0.9592
vn -0.2823 -0.0039 -0.9593
vn -0.2625 -0.0039 -0.9649
vn -0.0199 -0.0019 -0.9998
vn -0.2328 0.0060 0.9725
vn -0.2187 0.0051 0.9758
vn -0.2159 0.0040 0.9764
vn -0.2229 0.0067 0.9748
vn -0.2429 0.0070 0.9700
vn -0.2435 0.0056 0.9699
vn -0.2429 0.0041 0.9701
vn -0.4015 -0.0442 0.9148
vn -0.4117 0.0050 0.9113
vn -0.3993 -0.0445 0.9157
vn -0.6449 0.0042 0.7643
vn -0.6825 0.0039 0.7309
vn -0.0351 -0.0033 -0.9994
vn -0.0344 -0.0044 -0.9994
vn -0.0351 -0.0043 -0.9994
vn -0.0218 -0.0023 -0.9998
vn -0.0267 -0.0022 -0.9996
vn -0.0588 -0.0034 -0.9983
vn -0.0572 -0.0058 -0.9983
vn -0.0588 -0.0052 -0.9983
vn -0.9425 -0.0010 -0.3342
vn -0.2361 0.0087 0.9717
vn -0.2361 0.0083 0.9717
vn -0.2357 0.0080 0.9718
vn -0.2595 0.0094 0.9657
vn -0.2596 0.0071 0.9657
vn -0.2581 0.0078 0.9661
vn -0.4513 0.0079 0.8923
vn -0.4188 0.0070 0.9081
vn -0.4075 -0.0407 0.9123
vn -0.6658 0.0061 0.7461
vn -0.7013 0.0050 0.7128
vn -0.1772 -0.0049 -0.9842
vn -0.1618 -0.0266 -0.9865
vn -0.1765 -0.0073 -0.9843
vn -0.0301 -0.0020 -0.9995
vn -0.5127 -0.0036 -0.8586
vn -0.4904 -0.0036 -0.8715
vn -0.4687 -0.0036 -0.8834
vn -0.9784 0.0034 -0.2067
vn -0.2614 0.0116 0.9651
vn -0.2631 0.0078 0.9647
vn -0.2615 0.0040 0.9652
vn -0.2335 0.0095 0.9723
vn -0.2338 0.0091 0.9722
vn -0.2335 0.0083 0.9723
vn -0.2324 0.0107 0.9726
vn -0.2332 0.0090 0.9724
vn -0.2324 0.0074 0.9726
vn -0.4083 0.0509 0.9114
vn -0.4191 0.0095 0.9079
vn -0.4083 -0.0326 0.9123
vn -0.6401 0.0097 0.7683
vn -0.6735 0.0059 0.7392
vn -0.1458 -0.0010 -0.9893
vn -0.1406 -0.0091 -0.9900
vn -0.1460 -0.0067 -0.9893
vn -0.1311 -0.0029 -0.9914
vn -0.1289 -0.0061 -0.9916
vn -0.1310 -0.0055 -0.9914
vn -0.0615 -0.0036 -0.9981
vn -0.0610 -0.0040 -0.9981
vn -0.0365 -0.0022 -0.9993
vn -0.0314 0.0004 -0.9995
vn -0.0376 0.0014 -0.9993
vn -0.0365 -0.0011 -0.9993
vn -0.0412 -0.0011 -0.9992
vn -0.2878 -0.0026 -0.9577
vn -0.2579 -0.0245 -0.9659
vn -0.2792 -0.0111 -0.9602
vn -0.9996 0.0116 0.0243
vn -0.9996 0.0112 0.0243
vn -0.3326 0.0217 0.9428
vn -0.3349 0.0081 0.9422
vn -0.3244 0.0052 0.9459
vn -0.2826 0.0140 0.9591
vn -0.2847 0.0102 0.9586
vn -0.2829 0.0063 0.9591
vn -0.2270 0.0133 0.9738
vn -0.2275 0.0122 0.9737
vn -0.2271 0.0113 0.9738
vn -0.2105 0.0053 0.9776
vn -0.2068 0.0076 0.9783
vn -0.2101 0.0073 0.9777
vn -0.1897 0.0069 0.9818
vn -0.1933 0.0089 0.9811
vn -0.1964 0.0092 0.9805
vn -0.2097 0.0118 0.9777
vn -0.1949 0.0131 0.9807
vn -0.1950 0.0128 0.9807
vn -0.1829 0.0112 0.9831
vn -0.1829 0.0109 0.9831
vn -0.2480 0.0155 0.9686
vn -0.2490 0.0132 0.9684
vn -0.2478 0.0116 0.9687
vn -0.6132 0.0342 -0.7892
vn -0.6134 0.0031 -0.7898
vn -0.5875 0.0028 -0.8092
vn -0.0950 -0.0017 -0.9955
vn -0.0936 0.0005 -0.9956
vn -0.0931 -0.0039 -0.9956
vn -0.0830 -0.0030 -0.9965
vn -0.0832 -0.0017 -0.9965
vn -0.0830 -0.0025 -0.9965
vn -0.0678 0.0007 -0.9977
vn -0.0676 -0.0006 -0.9977
vn -0.0678 -0.0000 -0.9977
vn -0.0409 0.0035 -0.9992
vn -0.0539 0.0011 -0.9985
vn -0.0541 0.0002 -0.9985
vn -0.5804 0.0411 -0.8133
vn -0.5770 0.0035 -0.8167
vn -0.5771 -0.0012 -0.8167
vn -0.2295 0.0134 0.9732
vn -0.2294 0.0121 0.9732
vn -0.2294 0.0128 0.9733
vn -0.2073 0.0151 0.9782
vn -0.2071 0.0148 0.9782
vn -0.1996 0.0109 0.9798
vn -0.3104 -0.9506 0.0001
vn 1.0000 -0.0000 0.0000
vn -0.1868 0.0073 0.9824
vn -0.1972 0.0049 0.9804
vn -0.2026 0.0029 0.9792
vn -0.4155 -0.0055 0.9096
vn -0.3720 -0.0372 0.9275
vn -0.3669 0.0344 0.9296
vn -0.4143 0.0109 0.9101
vn -0.0000 1.0000 0.0000
vn -0.0214 -0.0009 -0.9998
vn -0.0217 -0.0007 -0.9998
vn -0.0263 -0.0005 -0.9997
vn -0.0280 -0.0009 -0.9996
vn -0.0227 -0.0010 -0.9997
vn -0.0190 -0.0010 -0.9998
vn -0.0188 -0.0010 -0.9998
vn -0.2668 0.0051 0.9637
vn -0.2693 0.0024 0.9631
vn -0.2681 0.0005 0.9634
vn -0.3032 -0.0054 0.9529
vn -0.3106 0.0057 0.9505
vn -0.3128 -0.0002 0.9498
vn -0.1274 -0.0199 -0.9917
vn -0.1393 -0.0041 -0.9902
vn -0.1367 0.0026 -0.9906
vn -0.1178 0.0068 -0.9930
vn -0.6969 0.0019 0.7172
vn -0.6958 -0.0534 0.7163
vn -0.7241 -0.0376 0.6887
vn -0.3047 -0.0090 -0.9524
vn -0.2881 -0.0018 -0.9576
vn -0.0833 -0.0010 -0.9965
vn -0.0815 0.0028 -0.9967
vn -0.0820 -0.0075 -0.9966
vn -0.4204 -0.0023 0.9073
vn -0.3975 -0.0460 0.9165
vn -0.3764 -0.0302 0.9259
vn -0.4130 0.0144 0.9106
vn -0.2434 0.0023 0.9699
vn -0.2440 0.0023 0.9698
vn -0.2197 0.0015 0.9756
vn -0.2141 0.0014 0.9768
vn -0.3115 0.0032 0.9502
vn -0.3214 0.0004 0.9469
vn -0.3217 0.0005 0.9469
vn -0.8601 -0.0010 -0.5101
vn -0.0182 -0.0019 -0.9998
vn -0.0183 -0.0020 -0.9998
vn -0.0800 -0.0077 -0.9968
vn -0.0839 -0.0057 -0.9965
vn -0.0845 -0.0019 -0.9964
vn -0.0787 -0.0016 -0.9969
vn -0.2198 0.0032 0.9755
vn -0.2199 0.0032 0.9755
vn -0.2130 0.0021 0.9770
vn -0.2503 0.0048 0.9681
vn -0.2517 0.0053 0.9678
vn -0.2518 0.0041 0.9678
vn -0.3454 0.0108 -0.9384
vn -0.3319 -0.0033 -0.9433
vn -0.0414 -0.0030 -0.9991
vn -0.0411 -0.0025 -0.9992
vn -0.0411 -0.0041 -0.9991
vn -0.0233 -0.0028 -0.9997
vn -0.0741 -0.0030 -0.9972
vn -0.0734 -0.0016 -0.9973
vn -0.0735 -0.0056 -0.9973
vn -0.1482 -0.0228 -0.9887
vn -0.1613 -0.0065 -0.9869
vn -0.1586 0.0012 -0.9873
vn -0.1375 0.0038 -0.9905
vn -0.3155 0.0023 0.9489
vn -0.3051 0.0053 0.9523
vn -0.3147 0.0168 0.9491
vn -0.3188 0.0061 0.9478
vn -0.2204 0.0036 0.9754
vn -0.2116 0.0031 0.9773
vn -0.2447 0.0071 0.9696
vn -0.2453 0.0057 0.9694
vn -0.2449 0.0054 0.9695
vn -0.2871 0.0059 0.9579
vn -0.2905 0.0047 0.9569
vn -0.2905 0.0045 0.9569
vn -0.7106 0.0043 0.7035
vn -0.7102 0.0540 0.7019
vn -0.7097 0.0544 0.7024
vn -0.8860 -0.0021 -0.4636
vn -0.8860 -0.0017 -0.4637
vn -0.0384 -0.0038 -0.9993
vn -0.0384 -0.0033 -0.9993
vn -0.0384 -0.0044 -0.9993
vn -0.0305 -0.0035 -0.9995
vn -0.0537 -0.0043 -0.9985
vn -0.0536 -0.0034 -0.9986
vn -0.0537 -0.0051 -0.9985
vn -0.3688 0.0115 -0.9294
vn -0.3532 -0.0049 -0.9355
vn -0.3957 0.0070 0.9184
vn -0.4406 0.0166 0.8975
vn -0.4404 0.0165 0.8977
vn -0.1167 -0.0108 -0.9931
vn -0.1213 -0.0058 -0.9926
vn -0.1209 -0.0032 -0.9927
vn -0.1188 0.0016 -0.9929
vn -0.2237 0.0065 0.9746
vn -0.7326 0.0065 0.6806
vn -0.7319 0.0536 0.6793
vn -0.7328 0.0545 0.6782
vn -0.8925 -0.0011 -0.4511
vn -0.3300 0.0043 0.9440
vn -0.3194 0.0076 0.9476
vn -0.3236 0.0168 0.9461
vn -0.3326 0.0103 0.9430
vn -0.0759 -0.0039 -0.9971
vn -0.0743 -0.0024 -0.9972
vn -0.0752 -0.0070 -0.9971
vn -0.0331 -0.0020 -0.9995
vn -0.0394 -0.0037 -0.9992
vn -0.2289 0.0000 -0.9735
vn -0.2231 0.0207 -0.9746
vn -0.1998 -0.0049 -0.9798
vn -0.4687 0.0231 -0.8830
vn -0.4683 -0.0036 -0.8836
vn -0.4150 0.0111 0.9097
vn -0.4564 0.0189 0.8896
vn -0.4564 0.0190 0.8896
vn -0.0853 -0.0048 -0.9963
vn -0.0863 -0.0043 -0.9963
vn -0.0863 -0.0031 -0.9963
vn -0.0848 -0.0038 -0.9964
vn -0.2178 0.0098 0.9759
vn -0.2182 0.0095 0.9759
vn -0.2178 0.0092 0.9760
vn -0.2423 0.0105 0.9702
vn -0.2431 0.0109 0.9699
vn -0.2432 0.0099 0.9699
vn -0.2890 0.0098 0.9573
vn -0.2927 0.0114 0.9561
vn -0.2928 0.0081 0.9562
vn -0.7208 0.0105 0.6930
vn -0.7209 0.0512 0.6911
vn -0.7259 0.0523 0.6858
vn -0.9220 0.0029 -0.3871
vn -0.2162 0.0069 0.9763
vn -0.2165 0.0070 0.9762
vn -0.0595 -0.0034 -0.9982
vn -0.0595 -0.0028 -0.9982
vn -0.0595 -0.0040 -0.9982
vn -0.0460 -0.0033 -0.9989
vn -0.0498 -0.0025 -0.9988
vn -0.0703 -0.0025 -0.9975
vn -0.0700 -0.0026 -0.9975
vn -0.1447 -0.0014 -0.9895
vn -0.1419 0.0054 -0.9899
vn -0.1422 -0.0125 -0.9898
vn -0.4735 0.0198 -0.8806
vn -0.4516 -0.0021 -0.8922
vn -0.4515 -0.0021 -0.8923
vn -0.4057 0.0197 0.9138
vn -0.4406 0.0213 0.8974
vn -0.4400 0.0002 0.8980
vn -0.2552 0.0107 0.9668
vn -0.2570 0.0113 0.9663
vn -0.2569 0.0095 0.9664
vn -0.2289 0.0114 0.9734
vn -0.2293 0.0120 0.9733
vn -0.2293 0.0113 0.9733
vn -0.2196 0.0088 0.9755
vn -0.2200 0.0091 0.9755
vn -0.2200 0.0085 0.9755
vn -0.2081 0.0095 0.9781
vn -0.2143 0.0048 0.9767
vn -0.2090 0.0045 0.9779
vn -0.2060 0.0036 0.9785
vn -0.2002 0.0045 0.9797
vn -0.2075 0.0057 0.9782
vn -0.2026 0.0055 0.9793
vn -0.1992 0.0062 0.9799
vn -0.1987 0.0078 0.9800
vn -0.2940 0.0113 0.9557
vn -0.2902 0.0130 0.9569
vn -0.2903 0.0160 0.9568
vn -0.2951 0.0148 0.9553
vn -0.1952 0.0097 0.9807
vn -0.1854 0.0095 0.9826
vn -0.1860 0.0098 0.9825
vn -0.1858 0.0095 0.9825
vn -0.4311 0.0205 0.9021
vn -0.4211 -0.0220 0.9067
vn -0.3969 0.0433 0.9169
vn -0.4309 0.0235 0.9021
vn -0.6900 0.0072 0.7238
vn -0.6639 0.0157 0.7476
vn -0.6644 0.0147 0.7472
vn -0.6846 0.0454 0.7275
vn -0.0511 -0.0010 -0.9987
vn -0.0514 -0.0009 -0.9987
vn -0.9789 0.0114 -0.2040
vn -0.9798 0.0184 -0.1990
vn -0.9799 0.0118 -0.1989
vn -0.2981 0.0070 -0.9545
vn -0.2657 0.0026 -0.9640
vn -0.2953 -0.0353 -0.9548
vn -0.1512 -0.0046 -0.9885
vn -0.1514 -0.0002 -0.9885
vn -0.1466 -0.0030 -0.9892
vn -0.1330 -0.0027 -0.9911
vn -0.1310 0.0001 -0.9914
vn -0.1314 -0.0078 -0.9913
vn -0.0395 0.0000 -0.9992
vn -0.0468 0.0019 -0.9989
vn -0.0461 0.0015 -0.9989
vn -0.0466 0.0015 -0.9989
vn -0.0569 0.0019 -0.9984
vn -0.0558 0.0012 -0.9984
vn -0.0567 0.0013 -0.9984
vn -0.3104 -0.9506 -0.0002
vn -0.0337 0.0018 -0.9994
vn -0.0333 0.0014 -0.9994
vn -0.0313 0.0043 -0.9995
vn -0.0310 0.0049 -0.9995
usemtl phong2
s off
f 1//1 2//2 101//3
f 6//4 5//4 116//4
f 18//5 17//5 15//5
f 17//6 18//6 19//6
f 96//7 24//7 22//7
f 23//8 119//8 97//8
f 96//9 81//9 24//9
f 81//10 70//10 24//10
f 25//11 48//11 21//11
f 52//12 34//12 33//12
f 45//13 33//14 32//15
f 47//16 46//17 35//18
f 37//19 43//19 31//19
f 40//20 29//21 28//22
f 38//23 28//23 27//23
f 39//24 40//25 28//24
f 42//26 37//27 30//28
f 44//29 52//30 33//30
f 53//31 19//31 34//31
f 45//32 46//33 60//34
f 45//35 60//36 44//37
f 65//38 60//39 46//40
f 59//41 51//42 43//41
f 49//43 40//44 39//43
f 50//45 59//45 37//45
f 51//46 59//47 67//48
f 66//49 65//50 47//51
f 61//52 52//52 44//52
f 64//53 61//54 44//53
f 58//55 50//56 42//57
f 48//58 38//58 26//58
f 63//59 61//59 64//59
f 63//60 62//60 61//60
f 62//61 17//61 54//61
f 107//62 62//62 63//62
f 74//63 64//64 60//65
f 77//66 66//67 67//68
f 73//69 67//70 59//69
f 68//71 55//72 49//73
f 70//74 49//74 48//74
f 25//75 70//75 48//75
f 71//76 56//77 55//78
f 72//79 73//79 50//79
f 86//80 107//81 75//82
f 75//83 63//84 74//85
f 91//86 76//87 77//88
f 85//89 77//90 73//89
f 78//91 58//92 57//93
f 80//94 69//94 70//94
f 83//95 72//96 58//97
f 84//98 85//98 72//98
f 89//99 75//100 74//101
f 88//102 86//103 75//104
f 105//105 88//106 75//107
f 103//108 90//109 91//110
f 102//111 91//112 85//111
f 92//113 78//114 79//115
f 93//116 92//117 79//118
f 95//119 71//120 68//119
f 82//121 68//121 80//121
f 96//122 80//122 81//122
f 97//123 98//123 96//123
f 98//124 80//124 96//124
f 98//125 82//125 80//125
f 100//126 83//127 78//128
f 101//129 102//129 84//130
f 104//131 89//132 90//133
f 104//134 105//135 89//136
f 5//137 7//138 87//139
f 110//140 16//140 108//140
f 111//141 110//141 109//141
f 111//142 109//142 106//142
f 12//143 11//143 13//143
f 10//144 11//144 12//144
f 10//145 12//145 112//145
f 113//146 112//146 7//146
f 114//147 10//148 113//148
f 8//149 9//150 10//150
f 5//151 87//152 105//153
f 115//154 101//155 83//156
f 94//157 116//158 93//159
f 94//160 117//161 116//162
f 117//163 94//164 99//165
f 119//166 118//166 97//166
f 117//167 99//168 118//168
f 115//169 1//170 101//171
f 116//4 5//4 4//4 3//4 2//4 1//4 115//4 100//4
f 6//172 7//173 5//174
f 113//175 7//176 6//175
f 114//177 113//177 6//177
f 114//178 6//178 8//178
f 8//179 23//179 22//179 24//179 21//179 20//179 18//179 15//179 14//179 11//179 9//179
f 10//180 9//180 11//180
f 13//181 11//181 14//181
f 15//182 17//182 16//182
f 35//183 36//184 51//185 47//186
f 30//187 31//187 43//187 36//187 35//187 32//187 33//187 34//187 19//187 18//187 20//187 27//187 28//187 29//187
f 26//188 20//189 21//189
f 25//190 21//190 24//190
f 8//4 119//4 23//4
f 24//191 70//191 25//191
f 21//192 48//192 26//192
f 20//193 26//193 27//193
f 26//194 38//194 27//194
f 46//195 45//196 32//197
f 35//198 46//199 32//200
f 30//201 29//202 41//203 42//204
f 43//205 51//206 36//207
f 30//208 37//209 31//209
f 40//210 41//211 29//212
f 47//213 51//214 67//215 66//216
f 45//217 44//218 33//218
f 52//219 53//219 34//219
f 53//220 17//220 19//220
f 47//221 65//222 46//223
f 37//224 59//224 43//224
f 38//225 39//225 28//225
f 38//226 48//226 39//226
f 41//227 40//228 56//229 57//230
f 61//231 54//231 52//231
f 52//232 54//232 53//232
f 54//233 17//233 53//233
f 60//234 64//235 44//236
f 42//237 50//238 37//238
f 49//239 55//240 40//241
f 48//242 49//242 39//242
f 55//243 56//244 40//245
f 42//246 41//247 57//248 58//249
f 65//250 66//251 76//252 74//253
f 61//254 62//254 54//254
f 62//255 16//255 17//255
f 74//256 63//257 64//258
f 65//259 74//260 60//261
f 73//262 77//263 67//264
f 50//265 73//266 59//265
f 69//267 68//268 49//269
f 70//270 69//270 49//270
f 68//271 71//272 55//273
f 58//274 72//275 50//275
f 77//276 76//277 66//278
f 57//279 56//280 79//281 78//282
f 75//283 107//283 63//283
f 85//284 91//285 77//286
f 72//287 85//287 73//287
f 74//288 76//289 90//290 89//291
f 71//292 79//293 56//294
f 81//295 80//295 70//295
f 80//296 68//296 69//296
f 78//297 83//298 58//299
f 83//300 84//301 72//301
f 91//302 90//303 76//304
f 79//305 71//306 94//307 93//308
f 87//309 106//310 86//311
f 88//312 87//313 86//314
f 89//315 105//316 75//317
f 102//318 103//319 91//320
f 84//321 102//321 85//321
f 108//322 107//322 86//322 109//323
f 95//324 94//325 71//326
f 82//327 95//327 68//327
f 98//328 95//328 82//328
f 99//329 94//330 95//329
f 92//331 100//332 78//333
f 83//334 101//335 84//336
f 103//337 104//338 90//339
f 105//340 87//341 88//342
f 87//343 7//344 106//345
f 86//346 106//347 109//348
f 111//349 106//349 7//349 112//349
f 107//350 108//350 62//350
f 108//351 16//351 62//351
f 16//352 14//352 15//352
f 110//353 14//353 16//353
f 109//354 110//354 108//354
f 110//355 13//355 14//355
f 111//356 13//356 110//356
f 13//357 111//357 112//357 12//357
f 105//358 104//359 4//360 5//361
f 113//362 10//362 112//362
f 114//363 8//364 10//365
f 104//366 103//367 3//368 4//369
f 103//370 102//371 2//372 3//373
f 95//374 98//375 118//374 99//374
f 101//376 2//377 102//378
f 100//379 115//380 83//381
f 93//382 116//383 100//384
f 93//385 100//386 92//387
f 120//4 119//4 6//4 116//4
f 97//388 118//388 98//388
f 119//389 120//390 118//391
f 120//392 117//393 118//394
f 117//395 120//395 116//395
f 8//4 6//4 119//4
f 22//396 97//397 96//397
f 22//398 23//399 97//399
